{"glyphs":{"0":{"ha":694,"x_min":0,"x_max":0,"o":"m 180 111 l 180 889 l 69 889 l 69 111 z m 514 0 l 514 111 l 180 111 l 180 0 z m 514 889 l 514 1000 l 180 1000 l 180 889 z m 625 111 l 625 889 l 514 889 l 514 111 z "},"1":{"ha":472,"x_min":0,"x_max":0,"o":"m 291 1000 l 291 889 l 69 889 l 69 778 l 291 778 l 291 0 l 403 0 l 403 1000 z "},"2":{"ha":694,"x_min":0,"x_max":0,"o":"m 180 778 l 180 889 l 69 889 l 69 778 z m 625 555 l 625 889 l 514 889 l 514 555 z m 69 222 l 69 0 l 625 0 l 625 111 l 180 111 l 180 222 z m 514 889 l 514 1000 l 180 1000 l 180 889 z m 291 222 l 291 333 l 180 333 l 180 222 z m 403 333 l 403 444 l 291 444 l 291 333 z m 514 444 l 514 555 l 403 555 l 403 444 z "},"3":{"ha":694,"x_min":0,"x_max":0,"o":"m 514 444 l 514 555 l 291 555 l 291 444 z m 514 0 l 514 111 l 180 111 l 180 0 z m 625 111 l 625 444 l 514 444 l 514 111 z m 180 111 l 180 222 l 69 222 l 69 111 z m 180 778 l 180 889 l 69 889 l 69 778 z m 625 555 l 625 889 l 514 889 l 514 555 z m 514 889 l 514 1000 l 180 1000 l 180 889 z "},"4":{"ha":694,"x_min":0,"x_max":0,"o":"m 291 444 l 291 667 l 180 667 l 180 444 z m 514 333 l 514 1000 l 403 1000 l 403 889 l 291 889 l 291 667 l 403 667 l 403 333 l 180 333 l 180 444 l 69 444 l 69 222 l 403 222 l 403 0 l 514 0 l 514 222 l 625 222 l 625 333 z "},"5":{"ha":694,"x_min":0,"x_max":0,"o":"m 514 0 l 514 111 l 180 111 l 180 0 z m 625 111 l 625 555 l 514 555 l 514 111 z m 180 111 l 180 222 l 69 222 l 69 111 z m 625 889 l 625 1000 l 69 1000 l 69 444 l 180 444 l 180 555 l 514 555 l 514 667 l 180 667 l 180 889 z "},"6":{"ha":694,"x_min":0,"x_max":0,"o":"m 514 0 l 514 111 l 180 111 l 180 0 z m 625 111 l 625 444 l 514 444 l 514 111 z m 69 111 l 180 111 l 180 444 l 514 444 l 514 555 l 180 555 l 180 889 l 69 889 z m 514 889 l 514 1000 l 180 1000 l 180 889 z m 625 778 l 625 889 l 514 889 l 514 778 z "},"7":{"ha":694,"x_min":0,"x_max":0,"o":"m 403 333 l 403 555 l 291 555 l 291 333 z m 291 0 l 291 333 l 180 333 l 180 0 z m 514 555 l 514 778 l 403 778 l 403 555 z m 69 1000 l 69 889 l 514 889 l 514 778 l 625 778 l 625 1000 z "},"8":{"ha":694,"x_min":0,"x_max":0,"o":"m 180 111 l 180 444 l 69 444 l 69 111 z m 625 111 l 625 444 l 514 444 l 514 111 z m 514 0 l 514 111 l 180 111 l 180 0 z m 180 555 l 180 889 l 69 889 l 69 555 z m 514 444 l 514 555 l 180 555 l 180 444 z m 625 555 l 625 889 l 514 889 l 514 555 z m 514 889 l 514 1000 l 180 1000 l 180 889 z "},"9":{"ha":694,"x_min":0,"x_max":0,"o":"m 180 555 l 180 889 l 69 889 l 69 555 z m 180 111 l 180 222 l 69 222 l 69 111 z m 514 0 l 514 111 l 180 111 l 180 0 z m 514 889 l 514 555 l 180 555 l 180 444 l 514 444 l 514 111 l 625 111 l 625 889 z m 514 889 l 514 1000 l 180 1000 l 180 889 z "},"\u0000":{"ha":0,"x_min":0,"x_max":0,"o":""},"\n":{"ha":0,"x_min":0,"x_max":0,"o":""},"\r":{"ha":0,"x_min":0,"x_max":0,"o":""}," ":{"ha":304,"x_min":0,"x_max":0,"o":""},"!":{"ha":250,"x_min":0,"x_max":0,"o":"m 180 0 l 180 111 l 69 111 l 69 0 z m 180 222 l 180 1000 l 69 1000 l 69 222 z "},"\"":{"ha":494,"x_min":0,"x_max":0,"o":"m 69 735 l 180 735 l 180 1068 l 69 1068 z m 314 1068 l 314 735 l 425 735 l 425 1068 z "},"“":{"ha":494,"x_min":0,"x_max":0,"o":"m 69 735 l 180 735 l 180 1068 l 69 1068 z m 314 1068 l 314 735 l 425 735 l 425 1068 z "},"”":{"ha":494,"x_min":0,"x_max":0,"o":"m 69 735 l 180 735 l 180 1068 l 69 1068 z m 314 1068 l 314 735 l 425 735 l 425 1068 z "},"#":{"ha":806,"x_min":0,"x_max":0,"o":"m 736 667 l 736 778 l 625 778 l 625 1000 l 514 1000 l 514 778 l 291 778 l 291 1000 l 180 1000 l 180 778 l 69 778 l 69 667 l 180 667 l 180 333 l 69 333 l 69 222 l 180 222 l 180 0 l 291 0 l 291 222 l 514 222 l 514 0 l 625 0 l 625 222 l 736 222 l 736 333 l 625 333 l 625 667 z m 514 333 l 291 333 l 291 667 l 514 667 z "},"$":{"ha":694,"x_min":0,"x_max":0,"o":"m 180 222 l 180 333 l 69 333 l 69 222 z m 180 666 l 180 889 l 69 889 l 69 666 z m 625 222 l 625 444 l 514 444 l 514 222 z m 625 778 l 625 889 l 514 889 l 514 778 z m 403 1000 l 403 1111 l 291 1111 l 291 1000 l 180 1000 l 180 889 l 291 889 l 291 666 l 180 666 l 180 555 l 291 555 l 291 222 l 180 222 l 180 111 l 291 111 l 291 0 l 403 0 l 403 111 l 514 111 l 514 222 l 403 222 l 403 444 l 514 444 l 514 555 l 403 555 l 403 889 l 514 889 l 514 1000 z "},"%":{"ha":917,"x_min":0,"x_max":0,"o":"m 736 0 l 736 111 l 514 111 l 514 0 z m 736 222 l 736 333 l 514 333 l 514 222 z m 514 778 l 514 889 l 403 889 l 403 778 z m 403 667 l 403 778 l 180 778 l 180 667 z m 403 889 l 403 1000 l 180 1000 l 180 889 z m 180 778 l 180 889 l 69 889 l 69 778 z m 514 111 l 514 222 l 403 222 l 403 111 z m 736 667 l 736 778 l 625 778 l 625 667 z m 625 555 l 625 667 l 514 667 l 514 555 z m 514 444 l 514 555 l 403 555 l 403 444 z m 847 111 l 847 222 l 736 222 l 736 111 z m 847 778 l 847 889 l 736 889 l 736 778 z m 403 333 l 403 444 l 291 444 l 291 333 z m 180 111 l 180 222 l 69 222 l 69 111 z m 291 222 l 291 333 l 180 333 l 180 222 z "},"&":{"ha":694,"x_min":0,"x_max":0,"o":"m 180 111 l 180 444 l 69 444 l 69 111 z m 180 667 l 180 889 l 69 889 l 69 667 z m 403 0 l 403 111 l 180 111 l 180 0 z m 625 0 l 625 111 l 514 111 l 514 0 z m 291 889 l 291 1000 l 180 1000 l 180 889 z m 403 333 l 403 444 l 291 444 l 291 333 z m 625 333 l 625 444 l 514 444 l 514 333 z m 514 111 l 514 333 l 403 333 l 403 111 z m 291 444 l 291 667 l 180 667 l 180 444 z m 403 667 l 403 889 l 291 889 l 291 667 z "},"'":{"ha":250,"x_min":0,"x_max":0,"o":"m 180 735 l 180 1068 l 69 1068 l 69 735 z "},"‘":{"ha":250,"x_min":0,"x_max":0,"o":"m 180 735 l 180 1068 l 69 1068 l 69 735 z "},"’":{"ha":250,"x_min":0,"x_max":0,"o":"m 180 735 l 180 1068 l 69 1068 l 69 735 z "},"(":{"ha":361,"x_min":0,"x_max":0,"o":"m 180 -8 l 180 991 l 69 991 l 69 -8 z m 291 -119 l 291 -8 l 180 -8 l 180 -119 z m 291 991 l 291 1103 l 180 1103 l 180 991 z "},")":{"ha":361,"x_min":0,"x_max":0,"o":"m 180 -139 l 180 -28 l 69 -28 l 69 -139 z m 291 -28 l 291 972 l 180 972 l 180 -28 z m 180 972 l 180 1083 l 69 1083 l 69 972 z "},"*":{"ha":472,"x_min":0,"x_max":0,"o":"m 403 735 l 403 846 l 291 846 l 291 735 z m 180 735 l 180 846 l 69 846 l 69 735 z m 403 957 l 403 1068 l 291 1068 l 291 957 z m 180 957 l 180 1068 l 69 1068 l 69 957 z m 291 846 l 291 957 l 180 957 l 180 846 z "},"+":{"ha":694,"x_min":0,"x_max":0,"o":"m 403 333 l 403 556 l 291 556 l 291 333 l 69 333 l 69 222 l 291 222 l 291 0 l 403 0 l 403 222 l 625 222 l 625 333 z "},",":{"ha":361,"x_min":0,"x_max":0,"o":"m 180 -139 l 180 -28 l 69 -28 l 69 -139 z m 291 -28 l 291 83 l 180 83 l 180 -28 z "},"-":{"ha":693,"x_min":0,"x_max":0,"o":"m 69 369 l 69 258 l 625 258 l 625 369 z "},".":{"ha":250,"x_min":0,"x_max":0,"o":"m 180 0 l 180 111 l 69 111 l 69 0 z "},"/":{"ha":583,"x_min":0,"x_max":0,"o":"m 291 222 l 291 444 l 180 444 l 180 222 z m 180 0 l 180 222 l 69 222 l 69 0 z m 403 444 l 403 667 l 291 667 l 291 444 z m 514 667 l 514 1000 l 403 1000 l 403 667 z "},":":{"ha":250,"x_min":0,"x_max":0,"o":"m 180 0 l 180 111 l 69 111 l 69 0 z m 180 555 l 180 667 l 69 667 l 69 555 z "},";":{"ha":361,"x_min":0,"x_max":0,"o":"m 291 -28 l 291 83 l 180 83 l 180 -28 z m 180 -139 l 180 -28 l 69 -28 l 69 -139 z m 291 278 l 291 389 l 180 389 l 180 278 z "},"<":{"ha":694,"x_min":0,"x_max":0,"o":"m 514 -8 l 514 103 l 403 103 l 403 -8 z m 625 -119 l 625 -8 l 514 -8 l 514 -119 z m 403 103 l 403 214 l 292 214 l 292 103 z m 514 768 l 625 768 l 625 879 l 514 879 l 514 768 l 403 768 l 403 657 l 514 657 z m 292 435 l 292 546 l 181 546 l 181 436 l 69 436 l 69 324 l 180 324 l 180 214 l 292 214 l 292 325 l 181 325 l 181 435 z m 403 546 l 403 657 l 292 657 l 292 546 z "},"=":{"ha":694,"x_min":0,"x_max":0,"o":"m 69 514 l 69 403 l 625 403 l 625 514 z m 69 269 l 69 158 l 625 158 l 625 269 z "},">":{"ha":694,"x_min":0,"x_max":0,"o":"m 292 -8 l 292 103 l 181 103 l 181 -8 z m 181 -119 l 181 -8 l 69 -8 l 69 -119 z m 403 103 l 403 214 l 292 214 l 292 103 z m 514 436 l 514 546 l 403 546 l 403 435 l 514 435 l 514 325 l 403 325 l 403 214 l 514 214 l 514 324 l 625 324 l 625 436 z m 403 546 l 403 657 l 292 657 l 292 546 z m 181 768 l 181 879 l 69 879 l 69 768 l 180 768 l 180 657 l 292 657 l 292 768 z "},"?":{"ha":694,"x_min":0,"x_max":0,"o":"m 403 222 l 403 444 l 291 444 l 291 222 z m 514 444 l 514 555 l 403 555 l 403 444 z m 403 0 l 403 111 l 291 111 l 291 0 z m 514 889 l 514 1000 l 180 1000 l 180 889 z m 180 778 l 180 889 l 69 889 l 69 778 z m 625 555 l 625 889 l 514 889 l 514 555 z "},"@":{"ha":1250,"x_min":0,"x_max":0,"o":"m 958 0 l 958 111 l 403 111 l 403 0 z m 514 778 l 514 666 l 736 666 l 736 444 l 847 444 l 847 778 z m 736 333 l 736 444 l 514 444 l 514 333 z m 514 444 l 514 666 l 403 666 l 403 444 z m 180 333 l 180 778 l 69 778 l 69 333 z m 847 1000 l 847 889 l 958 889 l 958 778 l 1069 778 l 1069 1000 z m 1180 333 l 1180 778 l 1069 778 l 1069 444 l 847 444 l 847 333 z m 180 778 l 291 778 l 291 889 l 403 889 l 403 1000 l 180 1000 z m 847 1000 l 847 1111 l 403 1111 l 403 1000 z m 403 111 l 403 222 l 291 222 l 291 333 l 180 333 l 180 111 z "},"A":{"ha":917,"x_min":0,"x_max":0,"o":"m 514 778 l 514 1000 l 403 1000 l 403 778 z m 847 0 l 847 222 l 736 222 l 736 0 z m 625 555 l 625 778 l 514 778 l 514 555 z m 180 0 l 180 222 l 69 222 l 69 0 z m 625 555 l 625 333 l 291 333 l 291 555 l 180 555 l 180 222 l 736 222 l 736 555 z m 403 555 l 403 778 l 291 778 l 291 555 z "},"B":{"ha":694,"x_min":0,"x_max":0,"o":"m 180 555 l 180 889 l 514 889 l 514 1000 l 69 1000 l 69 0 l 514 0 l 514 111 l 180 111 l 180 444 l 514 444 l 514 555 z m 625 111 l 625 444 l 514 444 l 514 111 z m 625 555 l 625 889 l 514 889 l 514 555 z "},"C":{"ha":806,"x_min":0,"x_max":0,"o":"m 625 0 l 625 111 l 180 111 l 180 0 z m 736 111 l 736 222 l 625 222 l 625 111 z m 736 778 l 736 889 l 625 889 l 625 778 z m 625 889 l 625 1000 l 180 1000 l 180 889 z m 180 111 l 180 889 l 69 889 l 69 111 z "},"D":{"ha":806,"x_min":0,"x_max":0,"o":"m 625 778 l 625 889 l 514 889 l 514 778 z m 180 889 l 514 889 l 514 1000 l 69 1000 l 69 0 l 514 0 l 514 111 l 180 111 z m 625 111 l 625 222 l 514 222 l 514 111 z m 736 222 l 736 778 l 625 778 l 625 222 z "},"E":{"ha":694,"x_min":0,"x_max":0,"o":"m 625 889 l 625 1000 l 69 1000 l 69 0 l 625 0 l 625 111 l 180 111 l 180 444 l 514 444 l 514 555 l 180 555 l 180 889 z "},"F":{"ha":694,"x_min":0,"x_max":0,"o":"m 625 889 l 625 1000 l 69 1000 l 69 0 l 180 0 l 180 444 l 514 444 l 514 555 l 180 555 l 180 889 z "},"G":{"ha":806,"x_min":0,"x_max":0,"o":"m 736 778 l 736 889 l 625 889 l 625 778 z m 625 0 l 736 0 l 736 555 l 403 555 l 403 444 l 625 444 l 625 222 l 514 222 l 514 111 l 625 111 z m 514 0 l 514 111 l 180 111 l 180 0 z m 625 889 l 625 1000 l 180 1000 l 180 889 z m 180 111 l 180 889 l 69 889 l 69 111 z "},"H":{"ha":806,"x_min":0,"x_max":0,"o":"m 625 1000 l 625 555 l 180 555 l 180 1000 l 69 1000 l 69 0 l 180 0 l 180 444 l 625 444 l 625 0 l 736 0 l 736 1000 z "},"I":{"ha":250,"x_min":0,"x_max":0,"o":"m 180 0 l 180 1000 l 69 1000 l 69 0 z "},"J":{"ha":583,"x_min":0,"x_max":0,"o":"m 403 0 l 403 111 l 180 111 l 180 0 z m 514 111 l 514 1000 l 403 1000 l 403 111 z m 180 111 l 180 333 l 69 333 l 69 111 z "},"K":{"ha":806,"x_min":0,"x_max":0,"o":"m 403 667 l 403 778 l 291 778 l 291 667 z m 514 778 l 514 889 l 403 889 l 403 778 z m 625 889 l 625 1000 l 514 1000 l 514 889 z m 180 667 l 180 1000 l 69 1000 l 69 0 l 180 0 l 180 444 l 291 444 l 291 667 z m 403 333 l 403 444 l 291 444 l 291 333 z m 736 0 l 736 111 l 625 111 l 625 0 z m 625 111 l 625 222 l 514 222 l 514 111 z m 514 222 l 514 333 l 403 333 l 403 222 z "},"L":{"ha":694,"x_min":0,"x_max":0,"o":"m 180 111 l 180 1000 l 69 1000 l 69 0 l 625 0 l 625 111 z "},"M":{"ha":917,"x_min":0,"x_max":0,"o":"m 514 111 l 514 333 l 403 333 l 403 111 z m 180 778 l 180 1000 l 69 1000 l 69 0 l 180 0 l 180 555 l 291 555 l 291 778 z m 625 333 l 625 555 l 514 555 l 514 333 z m 736 1000 l 736 778 l 625 778 l 625 555 l 736 555 l 736 0 l 847 0 l 847 1000 z m 403 333 l 403 555 l 291 555 l 291 333 z "},"N":{"ha":806,"x_min":0,"x_max":0,"o":"m 403 444 l 403 667 l 291 667 l 291 444 z m 180 889 l 180 1000 l 69 1000 l 69 0 l 180 0 l 180 667 l 291 667 l 291 889 z m 625 1000 l 625 333 l 514 333 l 514 111 l 625 111 l 625 0 l 736 0 l 736 1000 z m 514 333 l 514 444 l 403 444 l 403 333 z "},"O":{"ha":806,"x_min":0,"x_max":0,"o":"m 180 111 l 180 889 l 69 889 l 69 111 z m 625 0 l 625 111 l 180 111 l 180 0 z m 736 111 l 736 889 l 625 889 l 625 111 z m 625 889 l 625 1000 l 180 1000 l 180 889 z "},"P":{"ha":806,"x_min":0,"x_max":0,"o":"m 180 889 l 625 889 l 625 1000 l 69 1000 l 69 0 l 180 0 l 180 444 l 625 444 l 625 555 l 180 555 z m 736 555 l 736 889 l 625 889 l 625 555 z "},"Q":{"ha":806,"x_min":0,"x_max":0,"o":"m 736 -111 l 736 0 l 625 0 l 625 -111 z m 180 111 l 180 889 l 69 889 l 69 111 z m 736 111 l 736 889 l 625 889 l 625 222 l 514 222 l 514 111 l 180 111 l 180 0 l 625 0 l 625 111 z m 514 222 l 514 333 l 403 333 l 403 222 z m 625 889 l 625 1000 l 180 1000 l 180 889 z "},"R":{"ha":806,"x_min":0,"x_max":0,"o":"m 736 0 l 736 444 l 625 444 l 625 0 z m 180 555 l 180 889 l 625 889 l 625 1000 l 69 1000 l 69 0 l 180 0 l 180 444 l 625 444 l 625 555 z m 736 555 l 736 889 l 625 889 l 625 555 z "},"S":{"ha":694,"x_min":0,"x_max":0,"o":"m 514 0 l 514 111 l 180 111 l 180 0 z m 625 111 l 625 444 l 514 444 l 514 111 z m 180 111 l 180 222 l 69 222 l 69 111 z m 514 889 l 514 1000 l 180 1000 l 180 889 z m 625 778 l 625 889 l 514 889 l 514 778 z m 180 555 l 180 889 l 69 889 l 69 555 z m 514 444 l 514 555 l 180 555 l 180 444 z "},"T":{"ha":694,"x_min":0,"x_max":0,"o":"m 69 1000 l 69 889 l 291 889 l 291 0 l 403 0 l 403 889 l 625 889 l 625 1000 z "},"U":{"ha":806,"x_min":0,"x_max":0,"o":"m 625 0 l 625 111 l 180 111 l 180 0 z m 180 111 l 180 1000 l 69 1000 l 69 111 z m 736 111 l 736 1000 l 625 1000 l 625 111 z "},"V":{"ha":917,"x_min":0,"x_max":0,"o":"m 403 222 l 403 444 l 291 444 l 291 222 z m 291 444 l 291 778 l 180 778 l 180 444 z m 180 778 l 180 1000 l 69 1000 l 69 778 z m 514 0 l 514 222 l 403 222 l 403 0 z m 847 778 l 847 1000 l 736 1000 l 736 778 z m 736 444 l 736 778 l 625 778 l 625 444 z m 625 222 l 625 444 l 514 444 l 514 222 z "},"W":{"ha":1361,"x_min":0,"x_max":0,"o":"m 180 778 l 180 1000 l 69 1000 l 69 778 z m 291 444 l 291 778 l 180 778 l 180 444 z m 403 222 l 403 444 l 291 444 l 291 222 z m 514 0 l 514 222 l 403 222 l 403 0 z m 958 0 l 958 222 l 847 222 l 847 0 z m 1069 222 l 1069 444 l 958 444 l 958 222 z m 1180 444 l 1180 778 l 1069 778 l 1069 444 z m 1292 778 l 1292 1000 l 1180 1000 l 1180 778 z m 625 222 l 625 444 l 514 444 l 514 222 z m 847 222 l 847 444 l 736 444 l 736 222 z m 736 444 l 736 778 l 625 778 l 625 444 z "},"X":{"ha":917,"x_min":0,"x_max":0,"o":"m 180 0 l 180 222 l 69 222 l 69 0 z m 291 222 l 291 333 l 180 333 l 180 222 z m 625 333 l 625 444 l 514 444 l 514 333 z m 847 0 l 847 222 l 736 222 l 736 0 z m 403 333 l 403 444 l 291 444 l 291 333 z m 736 222 l 736 333 l 625 333 l 625 222 z m 514 444 l 514 555 l 403 555 l 403 444 z m 847 778 l 847 1000 l 736 1000 l 736 778 z m 736 667 l 736 778 l 625 778 l 625 667 z m 625 555 l 625 667 l 514 667 l 514 555 z m 291 667 l 291 778 l 180 778 l 180 667 z m 403 555 l 403 667 l 291 667 l 291 555 z m 180 778 l 180 1000 l 69 1000 l 69 778 z "},"Y":{"ha":917,"x_min":0,"x_max":0,"o":"m 180 778 l 180 1000 l 69 1000 l 69 778 z m 403 555 l 403 667 l 291 667 l 291 555 z m 514 0 l 514 555 l 403 555 l 403 0 z m 291 667 l 291 778 l 180 778 l 180 667 z m 847 778 l 847 1000 l 736 1000 l 736 778 z m 625 555 l 625 667 l 514 667 l 514 555 z m 736 667 l 736 778 l 625 778 l 625 667 z "},"Ý":{"ha":917,"x_min":0,"x_max":0,"o":"m 180 778 l 180 1000 l 69 1000 l 69 778 z m 403 555 l 403 667 l 291 667 l 291 555 z m 514 0 l 514 555 l 403 555 l 403 0 z m 291 667 l 291 778 l 180 778 l 180 667 z m 847 778 l 847 1000 l 736 1000 l 736 778 z m 625 555 l 625 667 l 514 667 l 514 555 z m 736 667 l 736 778 l 625 778 l 625 667 z "},"Ÿ":{"ha":917,"x_min":0,"x_max":0,"o":"m 180 778 l 180 1000 l 69 1000 l 69 778 z m 403 555 l 403 667 l 291 667 l 291 555 z m 514 0 l 514 555 l 403 555 l 403 0 z m 291 667 l 291 778 l 180 778 l 180 667 z m 847 778 l 847 1000 l 736 1000 l 736 778 z m 625 555 l 625 667 l 514 667 l 514 555 z m 736 667 l 736 778 l 625 778 l 625 667 z "},"Z":{"ha":917,"x_min":0,"x_max":0,"o":"m 625 555 l 625 667 l 514 667 l 514 555 z m 736 667 l 736 778 l 625 778 l 625 667 z m 69 222 l 69 0 l 847 0 l 847 111 l 180 111 l 180 222 z m 847 1000 l 69 1000 l 69 889 l 736 889 l 736 778 l 847 778 z m 514 444 l 514 555 l 403 555 l 403 444 z m 291 222 l 291 333 l 180 333 l 180 222 z m 403 333 l 403 444 l 291 444 l 291 333 z "},"[":{"ha":361,"x_min":0,"x_max":0,"o":"m 291 912 l 291 1023 l 69 1023 l 69 -199 l 291 -199 l 291 -88 l 180 -88 l 180 912 z "},"\\":{"ha":583,"x_min":0,"x_max":0,"o":"m 291 444 l 291 667 l 180 667 l 180 444 z m 180 667 l 180 1000 l 69 1000 l 69 667 z m 403 222 l 403 444 l 291 444 l 291 222 z m 514 0 l 514 222 l 403 222 l 403 0 z "},"]":{"ha":361,"x_min":0,"x_max":0,"o":"m 69 1023 l 69 912 l 180 912 l 180 -88 l 69 -88 l 69 -199 l 291 -199 l 291 1023 z "},"^":{"ha":694,"x_min":0,"x_max":0,"o":"m 180 714 l 180 825 l 69 825 l 69 714 z m 403 936 l 403 1047 l 291 1047 l 291 936 z m 291 825 l 291 936 l 180 936 l 180 825 z m 514 825 l 514 936 l 403 936 l 403 825 z m 625 714 l 625 825 l 514 825 l 514 714 z "},"_":{"ha":806,"x_min":0,"x_max":0,"o":"m 736 0 l 736 111 l 69 111 l 69 0 z "},"a":{"ha":694,"x_min":0,"x_max":0,"o":"m 514 555 l 514 667 l 180 667 l 180 555 z m 180 111 l 180 333 l 69 333 l 69 111 z m 514 555 l 514 444 l 180 444 l 180 333 l 514 333 l 514 111 l 180 111 l 180 0 l 625 0 l 625 555 z "},"b":{"ha":694,"x_min":0,"x_max":0,"o":"m 180 555 l 514 555 l 514 667 l 180 667 l 180 1000 l 69 1000 l 69 0 l 514 0 l 514 111 l 180 111 z m 625 111 l 625 555 l 514 555 l 514 111 z "},"c":{"ha":694,"x_min":0,"x_max":0,"o":"m 625 111 l 625 222 l 514 222 l 514 111 z m 180 111 l 180 555 l 69 555 l 69 111 z m 514 0 l 514 111 l 180 111 l 180 0 z m 514 555 l 514 667 l 180 667 l 180 555 z m 625 444 l 625 555 l 514 555 l 514 444 z "},"d":{"ha":694,"x_min":0,"x_max":0,"o":"m 180 111 l 180 555 l 69 555 l 69 111 z m 514 1000 l 514 667 l 180 667 l 180 555 l 514 555 l 514 111 l 180 111 l 180 0 l 625 0 l 625 1000 z "},"e":{"ha":694,"x_min":0,"x_max":0,"o":"m 514 0 l 514 111 l 180 111 l 180 0 z m 625 111 l 625 222 l 514 222 l 514 111 z m 514 555 l 514 667 l 180 667 l 180 555 z m 625 333 l 625 555 l 514 555 l 514 444 l 180 444 l 180 555 l 69 555 l 69 111 l 180 111 l 180 333 z "},"f":{"ha":361,"x_min":0,"x_max":0,"o":"m 69 889 l 69 0 l 180 0 l 180 555 l 291 555 l 291 667 l 180 667 l 180 889 z m 291 889 l 291 1000 l 180 1000 l 180 889 z "},"g":{"ha":694,"x_min":0,"x_max":0,"o":"m 514 -222 l 514 -111 l 69 -111 l 69 -222 z m 180 111 l 180 555 l 69 555 l 69 111 z m 180 667 l 180 555 l 514 555 l 514 111 l 180 111 l 180 0 l 514 0 l 514 -111 l 625 -111 l 625 667 z "},"h":{"ha":694,"x_min":0,"x_max":0,"o":"m 180 1000 l 69 1000 l 69 0 l 180 0 l 180 444 l 291 444 l 291 555 l 180 555 z m 514 555 l 514 667 l 291 667 l 291 555 z m 625 0 l 625 555 l 514 555 l 514 0 z "},"i":{"ha":250,"x_min":0,"x_max":0,"o":"m 180 0 l 180 667 l 69 667 l 69 0 z m 180 889 l 180 1000 l 69 1000 l 69 889 z "},"j":{"ha":250,"x_min":0,"x_max":0,"o":"m 180 -222 l 180 667 l 69 667 l 69 -222 z m 180 889 l 180 1000 l 69 1000 l 69 889 z "},"k":{"ha":694,"x_min":0,"x_max":0,"o":"m 180 444 l 180 1000 l 69 1000 l 69 0 l 180 0 l 180 333 l 291 333 l 291 444 z m 403 444 l 403 555 l 291 555 l 291 444 z m 514 555 l 514 667 l 403 667 l 403 555 z m 403 222 l 403 333 l 291 333 l 291 222 z m 514 111 l 514 222 l 403 222 l 403 111 z m 625 0 l 625 111 l 514 111 l 514 0 z "},"l":{"ha":250,"x_min":0,"x_max":0,"o":"m 180 0 l 180 1000 l 69 1000 l 69 0 z "},"m":{"ha":917,"x_min":0,"x_max":0,"o":"m 514 0 l 514 555 l 403 555 l 403 0 z m 69 667 l 69 0 l 180 0 l 180 555 l 403 555 l 403 667 z m 847 0 l 847 555 l 736 555 l 736 0 z m 736 555 l 736 667 l 514 667 l 514 555 z "},"n":{"ha":694,"x_min":0,"x_max":0,"o":"m 180 667 l 69 667 l 69 0 l 180 0 l 180 444 l 291 444 l 291 555 l 180 555 z m 625 0 l 625 555 l 514 555 l 514 0 z m 514 555 l 514 667 l 291 667 l 291 555 z "},"o":{"ha":694,"x_min":0,"x_max":0,"o":"m 514 0 l 514 111 l 180 111 l 180 0 z m 180 111 l 180 555 l 69 555 l 69 111 z m 514 555 l 514 667 l 180 667 l 180 555 z m 625 111 l 625 555 l 514 555 l 514 111 z "},"p":{"ha":694,"x_min":0,"x_max":0,"o":"m 180 555 l 514 555 l 514 667 l 69 667 l 69 -222 l 180 -222 l 180 0 l 514 0 l 514 111 l 180 111 z m 625 111 l 625 555 l 514 555 l 514 111 z "},"q":{"ha":694,"x_min":0,"x_max":0,"o":"m 180 111 l 180 555 l 69 555 l 69 111 z m 180 667 l 180 555 l 514 555 l 514 111 l 180 111 l 180 0 l 514 0 l 514 -222 l 625 -222 l 625 667 z "},"r":{"ha":361,"x_min":0,"x_max":0,"o":"m 69 667 l 69 0 l 180 0 l 180 555 l 291 555 l 291 667 z "},"s":{"ha":583,"x_min":0,"x_max":0,"o":"m 514 111 l 514 222 l 403 222 l 403 111 z m 403 222 l 403 333 l 291 333 l 291 222 z m 180 111 l 180 222 l 69 222 l 69 111 z m 403 0 l 403 111 l 180 111 l 180 0 z m 291 333 l 291 444 l 180 444 l 180 333 z m 514 444 l 514 555 l 403 555 l 403 444 z m 403 555 l 403 667 l 180 667 l 180 555 z m 180 444 l 180 555 l 69 555 l 69 444 z "},"t":{"ha":361,"x_min":0,"x_max":0,"o":"m 291 555 l 291 667 l 180 667 l 180 889 l 69 889 l 69 111 l 180 111 l 180 555 z m 291 0 l 291 111 l 180 111 l 180 0 z "},"u":{"ha":694,"x_min":0,"x_max":0,"o":"m 403 0 l 403 111 l 180 111 l 180 0 z m 180 111 l 180 667 l 69 667 l 69 111 z m 514 667 l 514 222 l 403 222 l 403 111 l 514 111 l 514 0 l 625 0 l 625 667 z "},"v":{"ha":694,"x_min":0,"x_max":0,"o":"m 403 0 l 403 222 l 291 222 l 291 0 z m 291 222 l 291 444 l 180 444 l 180 222 z m 180 444 l 180 667 l 69 667 l 69 444 z m 514 222 l 514 444 l 403 444 l 403 222 z m 625 444 l 625 667 l 514 667 l 514 444 z "},"w":{"ha":917,"x_min":0,"x_max":0,"o":"m 180 222 l 180 667 l 69 667 l 69 222 z m 403 222 l 403 444 l 291 444 l 291 222 z m 291 0 l 291 222 l 180 222 l 180 0 z m 736 0 l 736 222 l 625 222 l 625 0 z m 847 222 l 847 667 l 736 667 l 736 222 z m 514 444 l 514 667 l 403 667 l 403 444 z m 625 222 l 625 444 l 514 444 l 514 222 z "},"x":{"ha":583,"x_min":0,"x_max":0,"o":"m 180 0 l 180 222 l 69 222 l 69 0 z m 514 0 l 514 222 l 403 222 l 403 0 z m 180 444 l 180 667 l 69 667 l 69 444 z m 514 444 l 514 667 l 403 667 l 403 444 z m 403 222 l 403 444 l 180 444 l 180 222 z "},"y":{"ha":596,"x_min":0,"x_max":0,"o":"m 526 222 l 526 667 l 415 667 l 415 222 z m 193 -111 l 304 -111 l 304 111 l 415 111 l 415 222 l 193 222 z m 193 -222 l 193 -111 l -29 -111 l -29 -222 z m 193 222 l 193 667 l 82 667 l 82 222 z "},"ý":{"ha":596,"x_min":0,"x_max":0,"o":"m 526 222 l 526 667 l 415 667 l 415 222 z m 193 -111 l 304 -111 l 304 111 l 415 111 l 415 222 l 193 222 z m 193 -222 l 193 -111 l -29 -111 l -29 -222 z m 193 222 l 193 667 l 82 667 l 82 222 z "},"ÿ":{"ha":596,"x_min":0,"x_max":0,"o":"m 526 222 l 526 667 l 415 667 l 415 222 z m 193 -111 l 304 -111 l 304 111 l 415 111 l 415 222 l 193 222 z m 193 -222 l 193 -111 l -29 -111 l -29 -222 z m 193 222 l 193 667 l 82 667 l 82 222 z "},"z":{"ha":583,"x_min":0,"x_max":0,"o":"m 514 667 l 69 667 l 69 555 l 403 555 l 403 444 l 514 444 z m 69 222 l 69 0 l 514 0 l 514 111 l 180 111 l 180 222 z m 291 222 l 291 333 l 180 333 l 180 222 z m 403 333 l 403 444 l 291 444 l 291 333 z "},"{":{"ha":472,"x_min":0,"x_max":0,"o":"m 291 -88 l 291 357 l 180 357 l 180 -88 z m 403 -199 l 403 -88 l 291 -88 l 291 -199 z m 403 912 l 403 1023 l 291 1023 l 291 912 z m 180 357 l 180 468 l 69 468 l 69 357 z m 291 468 l 291 912 l 180 912 l 180 468 z "},"|":{"ha":250,"x_min":0,"x_max":0,"o":"m 180 0 l 180 1000 l 69 1000 l 69 0 z "},"}":{"ha":472,"x_min":0,"x_max":0,"o":"m 180 912 l 180 1023 l 69 1023 l 69 912 z m 291 -88 l 291 357 l 180 357 l 180 -88 z m 180 -199 l 180 -88 l 69 -88 l 69 -199 z m 291 468 l 291 912 l 180 912 l 180 468 z m 403 357 l 403 468 l 291 468 l 291 357 z "},"~":{"ha":806,"x_min":0,"x_max":0,"o":"m 625 833 l 625 944 l 403 944 l 403 833 z m 180 833 l 180 944 l 69 944 l 69 833 z m 736 944 l 736 1055 l 625 1055 l 625 944 z m 403 944 l 403 1055 l 180 1055 l 180 944 z "}," ":{"ha":304,"x_min":0,"x_max":0,"o":""},"§":{"ha":583,"x_min":0,"x_max":0,"o":"m 180 667 l 180 778 l 69 778 l 69 667 z m 403 778 l 403 889 l 180 889 l 180 778 z m 180 110 l 180 0 l 403 0 l 403 111 l 181 111 b 180 110 181 111 181 110 z m 514 111 l 514 222 l 403 222 l 403 111 z m 403 555 l 403 667 l 291 667 l 291 667 l 180 667 l 180 555 l 291 555 l 291 444 l 403 444 l 403 333 l 514 333 l 514 555 z m 291 444 l 180 444 l 180 555 l 69 555 l 69 333 l 180 333 l 180 222 l 291 222 l 291 222 l 403 222 l 403 333 l 291 333 z "},"­":{"ha":0,"x_min":0,"x_max":0,"o":""},"À":{"ha":917,"x_min":0,"x_max":0,"o":"m 625 555 l 625 778 l 514 778 l 514 555 z m 180 0 l 180 222 l 69 222 l 69 0 z m 514 778 l 514 1000 l 403 1000 l 403 778 z m 847 0 l 847 222 l 736 222 l 736 0 z m 625 555 l 625 333 l 291 333 l 291 555 l 180 555 l 180 222 l 736 222 l 736 555 z m 403 555 l 403 778 l 291 778 l 291 555 z m 569 1062 l 569 1172 l 458 1172 l 458 1062 z m 459 1173 l 459 1283 l 349 1283 l 349 1173 z "},"Á":{"ha":917,"x_min":0,"x_max":0,"o":"m 514 778 l 514 1000 l 403 1000 l 403 778 z m 625 555 l 625 778 l 514 778 l 514 555 z m 180 0 l 180 222 l 69 222 l 69 0 z m 847 0 l 847 222 l 736 222 l 736 0 z m 403 555 l 403 778 l 291 778 l 291 555 z m 625 555 l 625 333 l 291 333 l 291 555 l 180 555 l 180 222 l 736 222 l 736 555 z m 459 1062 l 459 1172 l 349 1172 l 349 1062 z m 569 1173 l 569 1283 l 458 1283 l 458 1173 z "},"Â":{"ha":917,"x_min":0,"x_max":0,"o":"m 514 778 l 514 1000 l 403 1000 l 403 778 z m 625 555 l 625 333 l 291 333 l 291 555 l 180 555 l 180 222 l 736 222 l 736 555 z m 625 555 l 625 778 l 514 778 l 514 555 z m 180 0 l 180 222 l 69 222 l 69 0 z m 847 0 l 847 222 l 736 222 l 736 0 z m 403 555 l 403 778 l 291 778 l 291 555 z m 405 1153 l 511 1153 l 511 1045 l 621 1045 l 621 1155 l 513 1155 l 513 1264 l 403 1264 l 403 1155 l 294 1155 l 294 1045 l 405 1045 z "},"Ã":{"ha":917,"x_min":0,"x_max":0,"o":"m 341 1040 l 341 1151 l 231 1151 l 231 1040 z m 564 1040 l 564 1151 l 453 1151 l 453 1040 z m 452 1149 l 452 1260 l 342 1260 l 342 1149 z m 674 1150 l 674 1260 l 564 1260 l 564 1150 z m 180 0 l 180 222 l 69 222 l 69 0 z m 847 0 l 847 222 l 736 222 l 736 0 z m 625 555 l 625 333 l 291 333 l 291 555 l 180 555 l 180 222 l 736 222 l 736 555 z m 403 555 l 403 778 l 291 778 l 291 555 z m 625 555 l 625 778 l 514 778 l 514 555 z m 514 778 l 514 1000 l 403 1000 l 403 778 z "},"Ä":{"ha":917,"x_min":0,"x_max":0,"o":"m 625 555 l 625 778 l 514 778 l 514 555 z m 514 778 l 514 1000 l 403 1000 l 403 778 z m 180 0 l 180 222 l 69 222 l 69 0 z m 847 0 l 847 222 l 736 222 l 736 0 z m 625 555 l 625 333 l 291 333 l 291 555 l 180 555 l 180 222 l 736 222 l 736 555 z m 403 555 l 403 778 l 291 778 l 291 555 z m 352 1062 l 352 1172 l 242 1172 l 242 1062 z m 685 1062 l 685 1172 l 575 1172 l 575 1062 z "},"Å":{"ha":917,"x_min":0,"x_max":0,"o":"m 292 999 l 625 999 l 625 889 l 736 889 l 736 999 l 625 999 l 625 1110 l 292 1110 l 292 999 l 181 999 l 181 889 l 292 889 z m 180 0 l 180 222 l 69 222 l 69 0 z m 847 0 l 847 222 l 736 222 l 736 0 z m 403 778 l 514 778 l 514 555 l 625 555 l 625 778 l 625 778 l 625 889 l 292 889 l 292 778 l 291 778 l 291 555 l 403 555 z m 625 555 l 625 333 l 291 333 l 291 555 l 180 555 l 180 222 l 736 222 l 736 555 z "},"Æ":{"ha":1125,"x_min":0,"x_max":0,"o":"m 1056 889 l 1056 1000 l 403 1000 l 403 778 l 501 778 l 501 333 l 291 333 l 291 555 l 180 555 l 180 222 l 501 222 l 501 0 l 1056 0 l 1056 111 l 612 111 l 612 444 l 945 444 l 945 555 l 612 555 l 612 889 z m 180 0 l 180 222 l 69 222 l 69 0 z m 403 555 l 403 778 l 291 778 l 291 555 z "},"Ç":{"ha":806,"x_min":0,"x_max":0,"o":"m 406 -148 l 296 -148 l 296 -258 l 406 -258 l 406 -149 l 516 -149 l 516 -38 l 406 -38 z m 736 115 l 736 226 l 625 226 l 625 115 z m 625 4 l 625 115 l 180 115 l 180 4 z m 180 115 l 180 893 l 69 893 l 69 115 z m 736 782 l 736 893 l 625 893 l 625 782 z m 625 893 l 625 1004 l 180 1004 l 180 893 z "},"È":{"ha":694,"x_min":0,"x_max":0,"o":"m 462 1062 l 462 1173 l 352 1173 l 352 1062 z m 353 1173 l 353 1283 l 242 1283 l 242 1173 z m 625 889 l 625 1000 l 69 1000 l 69 0 l 625 0 l 625 111 l 180 111 l 180 444 l 514 444 l 514 555 l 180 555 l 180 889 z "},"É":{"ha":694,"x_min":0,"x_max":0,"o":"m 353 1062 l 353 1173 l 242 1173 l 242 1062 z m 462 1173 l 462 1283 l 352 1283 l 352 1173 z m 625 889 l 625 1000 l 69 1000 l 69 0 l 625 0 l 625 111 l 180 111 l 180 444 l 514 444 l 514 555 l 180 555 l 180 889 z "},"Ê":{"ha":694,"x_min":0,"x_max":0,"o":"m 298 1153 l 404 1153 l 404 1045 l 515 1045 l 515 1155 l 407 1155 l 407 1264 l 296 1264 l 296 1155 l 188 1155 l 188 1045 l 298 1045 z m 625 889 l 625 1000 l 69 1000 l 69 0 l 625 0 l 625 111 l 180 111 l 180 444 l 514 444 l 514 555 l 180 555 l 180 889 z "},"Ë":{"ha":694,"x_min":0,"x_max":0,"o":"m 241 1045 l 241 1155 l 130 1155 l 130 1045 z m 574 1045 l 574 1155 l 463 1155 l 463 1045 z m 625 889 l 625 1000 l 69 1000 l 69 0 l 625 0 l 625 111 l 180 111 l 180 444 l 514 444 l 514 555 l 180 555 l 180 889 z "},"Ì":{"ha":360,"x_min":0,"x_max":0,"o":"m 290 1067 l 290 1178 l 179 1178 l 179 1067 z m 180 1178 l 180 1289 l 69 1289 l 69 1178 z m 235 0 l 235 1000 l 124 1000 l 124 0 z "},"Í":{"ha":360,"x_min":0,"x_max":0,"o":"m 180 1067 l 180 1178 l 69 1178 l 69 1067 z m 290 1178 l 290 1289 l 179 1289 l 179 1178 z m 235 0 l 235 1000 l 124 1000 l 124 0 z "},"Î":{"ha":467,"x_min":0,"x_max":0,"o":"m 289 0 l 289 1000 l 178 1000 l 178 0 z m 289 1160 l 289 1269 l 178 1269 l 178 1160 l 69 1160 l 69 1050 l 180 1050 l 180 1159 l 286 1159 l 286 1050 l 397 1050 l 397 1160 z "},"Ï":{"ha":583,"x_min":0,"x_max":0,"o":"m 180 1050 l 180 1160 l 69 1160 l 69 1050 z m 513 1050 l 513 1160 l 403 1160 l 403 1050 z m 347 0 l 347 1000 l 236 1000 l 236 0 z "},"Ñ":{"ha":806,"x_min":0,"x_max":0,"o":"m 289 1047 l 289 1157 l 178 1157 l 178 1047 z m 511 1047 l 511 1157 l 401 1157 l 401 1047 z m 400 1155 l 400 1266 l 289 1266 l 289 1155 z m 622 1156 l 622 1267 l 511 1267 l 511 1156 z m 403 444 l 403 667 l 291 667 l 291 444 z m 625 1000 l 625 333 l 514 333 l 514 111 l 625 111 l 625 0 l 736 0 l 736 1000 z m 180 889 l 180 1000 l 69 1000 l 69 0 l 180 0 l 180 667 l 291 667 l 291 889 z m 514 333 l 514 444 l 403 444 l 403 333 z "},"Ò":{"ha":806,"x_min":0,"x_max":0,"o":"m 517 1063 l 517 1174 l 406 1174 l 406 1063 z m 407 1174 l 407 1285 l 296 1285 l 296 1174 z m 625 889 l 625 1000 l 180 1000 l 180 889 z m 736 111 l 736 889 l 625 889 l 625 111 z m 625 0 l 625 111 l 180 111 l 180 0 z m 180 111 l 180 889 l 69 889 l 69 111 z "},"Ó":{"ha":806,"x_min":0,"x_max":0,"o":"m 407 1063 l 407 1174 l 296 1174 l 296 1063 z m 517 1174 l 517 1285 l 406 1285 l 406 1174 z m 625 889 l 625 1000 l 180 1000 l 180 889 z m 736 111 l 736 889 l 625 889 l 625 111 z m 625 0 l 625 111 l 180 111 l 180 0 z m 180 111 l 180 889 l 69 889 l 69 111 z "},"Ô":{"ha":806,"x_min":0,"x_max":0,"o":"m 180 111 l 180 889 l 69 889 l 69 111 z m 625 0 l 625 111 l 180 111 l 180 0 z m 625 889 l 625 1000 l 180 1000 l 180 889 z m 736 111 l 736 889 l 625 889 l 625 111 z m 352 1155 l 459 1155 l 459 1046 l 569 1046 l 569 1157 l 461 1157 l 461 1265 l 351 1265 l 351 1157 l 242 1157 l 242 1046 l 352 1046 z "},"Õ":{"ha":806,"x_min":0,"x_max":0,"o":"m 180 111 l 180 889 l 69 889 l 69 111 z m 625 0 l 625 111 l 180 111 l 180 0 z m 625 889 l 625 1000 l 180 1000 l 180 889 z m 736 111 l 736 889 l 625 889 l 625 111 z m 293 1040 l 293 1151 l 182 1151 l 182 1040 z m 515 1040 l 515 1151 l 405 1151 l 405 1040 z m 404 1149 l 404 1259 l 293 1259 l 293 1149 z m 626 1150 l 626 1260 l 515 1260 l 515 1150 z "},"Ö":{"ha":806,"x_min":0,"x_max":0,"o":"m 625 0 l 625 111 l 180 111 l 180 0 z m 180 111 l 180 889 l 69 889 l 69 111 z m 736 111 l 736 889 l 625 889 l 625 111 z m 625 889 l 625 1000 l 180 1000 l 180 889 z m 292 1061 l 292 1171 l 181 1171 l 181 1061 z m 625 1061 l 625 1171 l 515 1171 l 515 1061 z "},"Ø":{"ha":806,"x_min":0,"x_max":0,"o":"m 736 111 l 736 889 l 625 889 l 625 111 z m 290 220 l 403 220 l 403 498 l 515 498 l 515 779 l 624 779 l 624 889 l 625 889 l 625 1000 l 180 1000 l 180 889 l 514 889 l 514 780 l 402 780 l 402 499 l 290 499 l 290 221 l 180 221 l 180 889 l 69 889 l 69 111 l 180 111 l 180 111 l 180 111 l 180 0 l 625 0 l 625 111 l 290 111 z "},"Ù":{"ha":806,"x_min":0,"x_max":0,"o":"m 518 1061 l 518 1171 l 408 1171 l 408 1061 z m 408 1172 l 408 1282 l 298 1282 l 298 1172 z m 625 0 l 625 111 l 180 111 l 180 0 z m 180 111 l 180 1000 l 69 1000 l 69 111 z m 736 111 l 736 1000 l 625 1000 l 625 111 z "},"Ú":{"ha":806,"x_min":0,"x_max":0,"o":"m 408 1061 l 408 1171 l 298 1171 l 298 1061 z m 518 1172 l 518 1282 l 408 1282 l 408 1172 z m 180 111 l 180 1000 l 69 1000 l 69 111 z m 625 0 l 625 111 l 180 111 l 180 0 z m 736 111 l 736 1000 l 625 1000 l 625 111 z "},"Û":{"ha":806,"x_min":0,"x_max":0,"o":"m 625 0 l 625 111 l 180 111 l 180 0 z m 180 111 l 180 1000 l 69 1000 l 69 111 z m 736 111 l 736 1000 l 625 1000 l 625 111 z m 354 1152 l 460 1152 l 460 1044 l 571 1044 l 571 1154 l 463 1154 l 463 1263 l 352 1263 l 352 1154 l 243 1154 l 243 1044 l 354 1044 z "},"Ü":{"ha":806,"x_min":0,"x_max":0,"o":"m 180 111 l 180 1000 l 69 1000 l 69 111 z m 625 0 l 625 111 l 180 111 l 180 0 z m 736 111 l 736 1000 l 625 1000 l 625 111 z m 294 1062 l 294 1172 l 183 1172 l 183 1062 z m 627 1062 l 627 1172 l 517 1172 l 517 1062 z "},"ß":{"ha":694,"x_min":0,"x_max":0,"o":"m 180 555 l 180 889 l 514 889 l 514 1000 l 69 1000 l 69 0 l 180 0 l 180 122 l 180 122 l 180 444 l 514 444 l 514 555 z m 625 111 l 625 444 l 514 444 l 514 111 z m 514 0 l 514 111 l 340 111 l 340 0 z m 625 555 l 625 889 l 514 889 l 514 555 z "},"à":{"ha":694,"x_min":0,"x_max":0,"o":"m 180 111 l 180 333 l 69 333 l 69 111 z m 514 555 l 514 667 l 180 667 l 180 555 z m 514 555 l 514 444 l 180 444 l 180 333 l 514 333 l 514 111 l 180 111 l 180 0 l 625 0 l 625 555 z m 361 730 l 472 730 l 472 841 l 362 841 l 362 950 l 251 950 l 251 840 l 361 840 z "},"á":{"ha":694,"x_min":0,"x_max":0,"o":"m 514 555 l 514 444 l 180 444 l 180 333 l 514 333 l 514 111 l 180 111 l 180 0 l 625 0 l 625 555 z m 180 111 l 180 333 l 69 333 l 69 111 z m 514 555 l 514 667 l 180 667 l 180 555 z m 362 840 l 472 840 l 472 950 l 361 950 l 361 841 l 251 841 l 251 730 l 362 730 z "},"â":{"ha":694,"x_min":0,"x_max":0,"o":"m 296 711 l 296 822 l 185 822 l 185 711 z m 518 711 l 518 822 l 407 822 l 407 711 z m 406 820 l 406 931 l 296 931 l 296 820 z m 180 111 l 180 333 l 69 333 l 69 111 z m 514 555 l 514 667 l 180 667 l 180 555 z m 514 555 l 514 444 l 180 444 l 180 333 l 514 333 l 514 111 l 180 111 l 180 0 l 625 0 l 625 555 z "},"ã":{"ha":694,"x_min":0,"x_max":0,"o":"m 242 706 l 242 816 l 132 816 l 132 706 z m 465 706 l 465 816 l 354 816 l 354 706 z m 353 815 l 353 925 l 243 925 l 243 815 z m 575 815 l 575 926 l 465 926 l 465 815 z m 514 555 l 514 444 l 180 444 l 180 333 l 514 333 l 514 111 l 180 111 l 180 0 l 625 0 l 625 555 z m 180 111 l 180 333 l 69 333 l 69 111 z m 514 555 l 514 667 l 180 667 l 180 555 z "},"ä":{"ha":694,"x_min":0,"x_max":0,"o":"m 180 111 l 180 333 l 69 333 l 69 111 z m 514 555 l 514 667 l 180 667 l 180 555 z m 514 555 l 514 444 l 180 444 l 180 333 l 514 333 l 514 111 l 180 111 l 180 0 l 625 0 l 625 555 z m 290 730 l 290 841 l 179 841 l 179 730 z m 512 730 l 512 841 l 401 841 l 401 730 z "},"å":{"ha":694,"x_min":0,"x_max":0,"o":"m 180 111 l 180 333 l 69 333 l 69 111 z m 514 555 l 514 444 l 180 444 l 180 333 l 514 333 l 514 111 l 180 111 l 180 0 l 625 0 l 625 555 z m 514 555 l 514 667 l 180 667 l 180 555 z m 181 776 l 514 776 l 514 667 l 625 667 l 625 777 l 514 777 l 514 887 l 180 887 l 180 777 l 70 777 l 70 667 l 181 667 z "},"æ":{"ha":1139,"x_min":0,"x_max":0,"o":"m 1069 111 l 1069 222 l 958 222 l 958 111 z m 1069 333 l 1069 555 l 958 555 l 958 444 l 625 444 l 625 555 l 958 555 l 958 667 l 625 667 l 625 555 l 514 555 l 514 667 l 180 667 l 180 555 l 514 555 l 514 444 l 180 444 l 180 333 l 514 333 l 514 111 l 180 111 l 180 0 l 958 0 l 958 111 l 625 111 l 625 333 z m 180 111 l 180 333 l 69 333 l 69 111 z "},"ç":{"ha":694,"x_min":0,"x_max":0,"o":"m 351 -167 l 241 -167 l 241 -278 l 351 -278 l 351 -168 l 462 -168 l 462 -58 l 351 -58 z m 514 -15 l 514 96 l 180 96 l 180 -15 z m 625 96 l 625 207 l 514 207 l 514 96 z m 514 540 l 514 651 l 180 651 l 180 540 z m 625 429 l 625 540 l 514 540 l 514 429 z m 180 96 l 180 540 l 69 540 l 69 96 z "},"è":{"ha":694,"x_min":0,"x_max":0,"o":"m 625 111 l 625 222 l 514 222 l 514 111 z m 625 333 l 625 555 l 514 555 l 514 444 l 180 444 l 180 555 l 69 555 l 69 111 l 180 111 l 180 333 z m 514 0 l 514 111 l 180 111 l 180 0 z m 514 555 l 514 667 l 180 667 l 180 555 z m 366 730 l 476 730 l 476 840 l 366 840 l 366 950 l 256 950 l 256 839 l 366 839 z "},"é":{"ha":694,"x_min":0,"x_max":0,"o":"m 625 111 l 625 222 l 514 222 l 514 111 z m 514 0 l 514 111 l 180 111 l 180 0 z m 625 333 l 625 555 l 514 555 l 514 444 l 180 444 l 180 555 l 69 555 l 69 111 l 180 111 l 180 333 z m 514 555 l 514 667 l 180 667 l 180 555 z m 366 839 l 476 839 l 476 950 l 366 950 l 366 840 l 256 840 l 256 730 l 366 730 z "},"ê":{"ha":694,"x_min":0,"x_max":0,"o":"m 300 711 l 300 822 l 190 822 l 190 711 z m 523 711 l 523 822 l 412 822 l 412 711 z m 411 820 l 411 930 l 301 930 l 301 820 z m 625 111 l 625 222 l 514 222 l 514 111 z m 625 333 l 625 555 l 514 555 l 514 444 l 180 444 l 180 555 l 69 555 l 69 111 l 180 111 l 180 333 z m 514 555 l 514 667 l 180 667 l 180 555 z m 514 0 l 514 111 l 180 111 l 180 0 z "},"ë":{"ha":694,"x_min":0,"x_max":0,"o":"m 300 711 l 300 822 l 190 822 l 190 711 z m 523 711 l 523 822 l 412 822 l 412 711 z m 625 333 l 625 555 l 514 555 l 514 444 l 180 444 l 180 555 l 69 555 l 69 111 l 180 111 l 180 333 z m 625 111 l 625 222 l 514 222 l 514 111 z m 514 0 l 514 111 l 180 111 l 180 0 z m 514 555 l 514 667 l 180 667 l 180 555 z "},"ì":{"ha":360,"x_min":0,"x_max":0,"o":"m 180 846 l 180 956 l 69 956 l 69 845 l 180 845 l 180 736 l 290 736 l 290 846 z m 227 0 l 227 667 l 116 667 l 116 0 z "},"í":{"ha":360,"x_min":0,"x_max":0,"o":"m 180 956 l 180 846 l 69 846 l 69 736 l 180 736 l 180 845 l 290 845 l 290 956 z m 242 0 l 242 667 l 131 667 l 131 0 z "},"î":{"ha":472,"x_min":0,"x_max":0,"o":"m 180 717 l 180 827 l 69 827 l 69 717 z m 402 717 l 402 827 l 292 827 l 292 717 z m 291 826 l 291 936 l 180 936 l 180 826 z m 293 0 l 293 667 l 182 667 l 182 0 z "},"ï":{"ha":472,"x_min":0,"x_max":0,"o":"m 293 0 l 293 667 l 182 667 l 182 0 z m 180 717 l 180 827 l 69 827 l 69 717 z m 402 717 l 402 827 l 292 827 l 292 717 z "},"ñ":{"ha":694,"x_min":0,"x_max":0,"o":"m 242 712 l 242 823 l 131 823 l 131 712 z m 464 712 l 464 823 l 354 823 l 354 712 z m 352 821 l 352 931 l 242 931 l 242 821 z m 575 821 l 575 932 l 464 932 l 464 821 z m 625 0 l 625 555 l 514 555 l 514 0 z m 180 667 l 69 667 l 69 0 l 180 0 l 180 444 l 291 444 l 291 555 l 180 555 z m 514 555 l 514 667 l 291 667 l 291 555 z "},"ò":{"ha":694,"x_min":0,"x_max":0,"o":"m 180 111 l 180 555 l 69 555 l 69 111 z m 514 0 l 514 111 l 180 111 l 180 0 z m 625 111 l 625 555 l 514 555 l 514 111 z m 514 555 l 514 667 l 180 667 l 180 555 z m 364 728 l 474 728 l 474 839 l 364 839 l 364 948 l 254 948 l 254 838 l 364 838 z "},"ó":{"ha":694,"x_min":0,"x_max":0,"o":"m 180 111 l 180 555 l 69 555 l 69 111 z m 514 0 l 514 111 l 180 111 l 180 0 z m 514 555 l 514 667 l 180 667 l 180 555 z m 625 111 l 625 555 l 514 555 l 514 111 z m 364 838 l 474 838 l 474 948 l 364 948 l 364 839 l 254 839 l 254 728 l 364 728 z "},"ô":{"ha":694,"x_min":0,"x_max":0,"o":"m 289 708 l 289 818 l 179 818 l 179 708 z m 512 708 l 512 818 l 401 818 l 401 708 z m 400 816 l 400 927 l 290 927 l 290 816 z m 625 111 l 625 555 l 514 555 l 514 111 z m 180 111 l 180 555 l 69 555 l 69 111 z m 514 0 l 514 111 l 180 111 l 180 0 z m 514 555 l 514 667 l 180 667 l 180 555 z "},"õ":{"ha":694,"x_min":0,"x_max":0,"o":"m 514 0 l 514 111 l 180 111 l 180 0 z m 180 111 l 180 555 l 69 555 l 69 111 z m 625 111 l 625 555 l 514 555 l 514 111 z m 514 555 l 514 667 l 180 667 l 180 555 z m 242 706 l 242 816 l 132 816 l 132 706 z m 465 706 l 465 816 l 354 816 l 354 706 z m 353 815 l 353 925 l 243 925 l 243 815 z m 575 815 l 575 926 l 465 926 l 465 815 z "},"ö":{"ha":694,"x_min":0,"x_max":0,"o":"m 514 0 l 514 111 l 180 111 l 180 0 z m 180 111 l 180 555 l 69 555 l 69 111 z m 514 555 l 514 667 l 180 667 l 180 555 z m 625 111 l 625 555 l 514 555 l 514 111 z m 291 729 l 291 839 l 181 839 l 181 729 z m 514 729 l 514 839 l 403 839 l 403 729 z "},"ø":{"ha":694,"x_min":0,"x_max":0,"o":"m 514 0 l 514 111 l 180 111 l 180 0 z m 625 111 l 625 555 l 514 555 l 514 111 z m 291 111 l 291 220 l 403 220 l 403 445 l 290 445 l 290 222 l 180 222 l 180 555 l 69 555 l 69 111 l 180 111 l 180 111 z m 403 445 l 514 445 l 514 555 l 514 555 l 514 667 l 180 667 l 180 555 l 403 555 z "},"ù":{"ha":694,"x_min":0,"x_max":0,"o":"m 403 0 l 403 111 l 180 111 l 180 0 z m 180 111 l 180 667 l 69 667 l 69 111 z m 514 667 l 514 222 l 403 222 l 403 111 l 514 111 l 514 0 l 625 0 l 625 667 z m 363 727 l 474 727 l 474 838 l 364 838 l 364 947 l 253 947 l 253 837 l 363 837 z "},"ú":{"ha":694,"x_min":0,"x_max":0,"o":"m 403 0 l 403 111 l 180 111 l 180 0 z m 514 667 l 514 222 l 403 222 l 403 111 l 514 111 l 514 0 l 625 0 l 625 667 z m 180 111 l 180 667 l 69 667 l 69 111 z m 364 837 l 474 837 l 474 947 l 363 947 l 363 838 l 253 838 l 253 727 l 364 727 z "},"û":{"ha":694,"x_min":0,"x_max":0,"o":"m 403 0 l 403 111 l 180 111 l 180 0 z m 180 111 l 180 667 l 69 667 l 69 111 z m 514 667 l 514 222 l 403 222 l 403 111 l 514 111 l 514 0 l 625 0 l 625 667 z m 298 709 l 298 819 l 187 819 l 187 709 z m 520 709 l 520 819 l 410 819 l 410 709 z m 409 817 l 409 928 l 298 928 l 298 817 z "},"ü":{"ha":694,"x_min":0,"x_max":0,"o":"m 403 0 l 403 111 l 180 111 l 180 0 z m 180 111 l 180 667 l 69 667 l 69 111 z m 514 667 l 514 222 l 403 222 l 403 111 l 514 111 l 514 0 l 625 0 l 625 667 z m 290 729 l 290 839 l 180 839 l 180 729 z m 513 729 l 513 839 l 402 839 l 402 729 z "},"Œ":{"ha":1249,"x_min":0,"x_max":0,"o":"m 1179 889 l 1179 1000 l 625 1000 l 625 1001 l 180 1001 l 180 890 l 623 890 l 623 112 l 180 112 l 180 1 l 623 1 l 623 0 l 1179 0 l 1179 111 l 734 111 l 734 112 l 736 112 l 736 444 l 1068 444 l 1068 555 l 736 555 l 736 889 z m 180 112 l 180 890 l 69 890 l 69 112 z "},"œ":{"ha":1139,"x_min":0,"x_max":0,"o":"m 1069 111 l 1069 222 l 958 222 l 958 111 z m 958 0 l 958 111 l 625 111 l 625 0 z m 1069 333 l 1069 555 l 958 555 l 958 444 l 625 444 l 625 555 l 514 555 l 514 111 l 625 111 l 625 333 z m 958 555 l 958 667 l 625 667 l 625 555 z m 514 555 l 514 667 l 180 667 l 180 555 z m 514 0 l 514 111 l 180 111 l 180 0 z m 180 111 l 180 555 l 69 555 l 69 111 z "},"€":{"ha":849,"x_min":0,"x_max":0,"o":"m 668 0 l 668 111 l 224 111 l 224 0 z m 113 673 l 69 673 l 69 562 l 113 562 l 113 428 l 69 428 l 69 317 l 113 317 l 113 111 l 224 111 l 224 317 l 625 317 l 625 428 l 224 428 l 224 562 l 625 562 l 625 673 l 224 673 l 224 889 l 113 889 z m 779 111 l 779 222 l 668 222 l 668 111 z m 668 889 l 668 1000 l 224 1000 l 224 889 z m 779 778 l 779 889 l 668 889 l 668 778 z "},"":{"ha":694,"x_min":0,"x_max":0,"o":"m 180 0 l 180 111 l 69 111 l 69 0 z m 402 0 l 402 111 l 291 111 l 291 0 z m 624 0 l 624 111 l 513 111 l 513 0 z "}}}
